<?xml version="1.0" encoding="UTF-8"?>
<!DOCTYPE svg PUBLIC "-//W3C//DTD SVG 1.1//EN" "http://www.w3.org/Graphics/SVG/1.1/DTD/svg11.dtd">
<svg xmlns="http://www.w3.org/2000/svg" version="1.1" width="512px" height="512px" style="shape-rendering:geometricPrecision; text-rendering:geometricPrecision; image-rendering:optimizeQuality; fill-rule:evenodd; clip-rule:evenodd" xmlns:xlink="http://www.w3.org/1999/xlink">
<g><path style="opacity:1" fill="#fefefe" d="M -0.5,-0.5 C 170.167,-0.5 340.833,-0.5 511.5,-0.5C 511.5,170.167 511.5,340.833 511.5,511.5C 340.833,511.5 170.167,511.5 -0.5,511.5C -0.5,340.833 -0.5,170.167 -0.5,-0.5 Z"/></g>
<g><path style="opacity:1" fill="#1e1e1c" d="M 67.5,78.5 C 73.8921,77.7906 79.8921,78.9573 85.5,82C 131.333,127.833 177.167,173.667 223,219.5C 228.331,229.52 227.331,238.853 220,247.5C 176.5,291 133,334.5 89.5,378C 79.9459,385.778 69.9459,386.445 59.5,380C 53.6667,374.167 47.8333,368.333 42,362.5C 35.4433,351.967 36.11,341.967 44,332.5C 77.6804,298.986 111.18,265.32 144.5,231.5C 110.847,197.347 77.0138,163.347 43,129.5C 37.0254,121.458 36.0254,112.791 40,103.5C 47.8387,93.4847 57.0053,85.1514 67.5,78.5 Z"/></g>
<g><path style="opacity:1" fill="#1e1e1c" d="M 179.5,344.5 C 272.501,344.333 365.501,344.5 458.5,345C 466.111,346.946 471.611,351.446 475,358.5C 476.587,368.092 476.92,377.758 476,387.5C 474.293,397.098 468.793,403.264 459.5,406C 365.833,406.667 272.167,406.667 178.5,406C 170.261,403.427 165.095,397.927 163,389.5C 162.333,380.167 162.333,370.833 163,361.5C 165.684,352.984 171.184,347.317 179.5,344.5 Z"/></g>
</svg>
